<?xml version="1.0" encoding="UTF-8"?>
<svg width="828px" height="108px" viewBox="0 0 828 108" version="1.1" xmlns="http://www.w3.org/2000/svg" xmlns:xlink="http://www.w3.org/1999/xlink">
    <!-- Generator: Sketch 49.3 (51167) - http://www.bohemiancoding.com/sketch -->
    <title>JONNIE CRAIG</title>
    <desc>Created with Sketch.</desc>
    <defs></defs>
    <g id="Page-1" stroke="none" stroke-width="1" fill="none" fill-rule="evenodd">
        <g id="Facebook-/-Meta-Image" transform="translate(-182.000000, -259.000000)" fill="#000000">
            <path d="M222.588,261.032 L244.332,261.032 L244.332,340.808 C244.332,358.952 229.644,366.728 214.236,366.728 C183.852,366.728 182.556,354.056 182.556,330.44 L204.732,330.44 C204.732,338.792 202.86,351.176 214.236,351.176 C219.132,351.176 222.588,346.712 222.588,342.248 L222.588,261.032 Z M293.316,351.176 C305.556,351.176 307.14,339.656 307.14,313.016 C307.14,286.376 305.556,274.856 293.316,274.856 C281.076,274.856 279.492,286.376 279.492,313.016 C279.492,339.656 281.076,351.176 293.316,351.176 Z M293.316,366.728 C257.46,366.728 257.46,340.232 257.46,313.016 C257.46,285.512 257.46,259.304 293.316,259.304 C329.172,259.304 329.172,285.512 329.172,313.016 C329.172,340.232 329.172,366.728 293.316,366.728 Z M363.9,365 L343.596,365 L343.596,261.032 L372.972,261.032 L400.62,333.032 L400.908,333.032 L400.908,261.032 L421.212,261.032 L421.212,365 L392.556,365 L364.188,288.968 L363.9,288.968 L363.9,365 Z M456.948,365 L436.644,365 L436.644,261.032 L466.02,261.032 L493.668,333.032 L493.956,333.032 L493.956,261.032 L514.26,261.032 L514.26,365 L485.604,365 L457.236,288.968 L456.948,288.968 L456.948,365 Z M551.292,365 L529.548,365 L529.548,261.032 L551.292,261.032 L551.292,365 Z M624.468,365 L566.58,365 L566.58,261.032 L623.316,261.032 L623.316,277.016 L588.324,277.016 L588.324,302.648 L620.58,302.648 L620.58,318.632 L588.324,318.632 L588.324,349.016 L624.468,349.016 L624.468,365 Z M699.396,366.728 C663.54,366.728 663.54,340.232 663.54,313.016 C663.54,285.512 663.54,259.304 699.396,259.304 C721.572,259.304 730.5,271.544 729.636,293.864 L708.324,293.864 C708.324,280.04 705.876,274.856 699.396,274.856 C687.156,274.856 685.572,286.376 685.572,313.016 C685.572,339.656 687.156,351.176 699.396,351.176 C709.476,351.176 709.044,338.216 709.332,330.008 L730.788,330.008 C730.788,357.8 719.7,366.728 699.396,366.728 Z M762.924,277.016 L762.924,305.96 L772.572,305.96 C781.212,305.96 783.66,297.32 783.66,290.696 C783.66,280.76 779.484,277.016 772.572,277.016 L762.924,277.016 Z M762.924,321.944 L762.924,365 L741.18,365 L741.18,261.032 L781.356,261.032 C796.188,261.032 805.692,270.536 805.692,288.248 C805.692,301.496 800.508,311.432 786.396,313.736 L786.396,314.024 C791.148,314.6 805.26,315.752 805.26,334.472 C805.26,341.096 805.692,360.68 807.708,365 L786.396,365 C783.516,358.664 784.092,351.608 784.092,344.84 C784.092,332.456 785.244,321.944 768.54,321.944 L762.924,321.944 Z M832.212,365 L810.756,365 L839.556,261.032 L868.212,261.032 L896.436,365 L873.54,365 L867.78,341.96 L838.116,341.96 L832.212,365 Z M863.172,325.976 L852.66,281.048 L852.372,281.048 L842.436,325.976 L863.172,325.976 Z M925.404,365 L903.66,365 L903.66,261.032 L925.404,261.032 L925.404,365 Z M1009.812,293 L988.212,293 C988.356,283.352 986.772,274.856 975.252,274.856 C961.716,274.856 961.716,293.144 961.716,313.304 C961.716,345.848 964.884,351.608 977.268,351.608 C980.868,351.608 984.756,350.744 988.068,349.592 L988.068,326.552 L976.26,326.552 L976.26,310.568 L1009.812,310.568 L1009.812,363.272 C1003.908,364.424 989.076,366.728 980.436,366.728 C943.86,366.728 939.684,351.608 939.684,312.152 C939.684,285.944 940.98,259.304 976.548,259.304 C997.86,259.304 1011.108,271.256 1009.812,293 Z" id="JONNIE-CRAIG"></path>
        </g>
    </g>
</svg>